<?xml version="1.0" encoding="UTF-8"?>
<!DOCTYPE svg PUBLIC "-//W3C//DTD SVG 1.1//EN" "http://www.w3.org/Graphics/SVG/1.1/DTD/svg11.dtd">
<!-- Creator: CorelDRAW X7 -->
<svg xmlns="http://www.w3.org/2000/svg" xml:space="preserve" width="0.308079in" height="0.208465in" version="1.1" style="shape-rendering:geometricPrecision; text-rendering:geometricPrecision; image-rendering:optimizeQuality; fill-rule:evenodd; clip-rule:evenodd"
viewBox="0 0 308 208"
 xmlns:xlink="http://www.w3.org/1999/xlink">
 <defs>
  <style type="text/css">
   <![CDATA[
    .fil0 {fill:black}
   ]]>
  </style>
 </defs>
 <g id="Layer_x0020_1">
  <metadata id="CorelCorpID_0Corel-Layer"/>
  <path class="fil0" d="M247 0c-19,0 -35,16 -35,35 0,20 16,35 35,35 20,0 36,-15 36,-35 0,-19 -16,-35 -36,-35zm-92 0c24,0 44,19 44,43 0,24 -20,44 -44,44 -23,0 -43,-20 -43,-44 0,-24 20,-43 43,-43zm75 143l0 48c0,23 -149,23 -149,0l0 -48c0,-29 16,-49 39,-59 9,9 22,14 35,14 14,0 27,-5 36,-13 22,9 39,29 39,58zm-169 -143c19,0 35,16 35,35 0,20 -16,35 -35,35 -20,0 -36,-15 -36,-35 0,-19 16,-35 36,-35zm10 169c-33,1 -71,-3 -71,-14l0 -39c0,-24 13,-40 31,-47 8,6 18,10 30,10 11,0 21,-4 29,-10 6,2 12,6 17,11 -23,13 -36,36 -36,63l0 26zm169 0c33,1 68,-4 68,-14l0 -39c0,-24 -13,-40 -31,-47 -8,6 -18,10 -30,10 -11,0 -21,-4 -29,-10 -5,2 -11,6 -16,10 24,13 38,36 38,64l0 26z"/>
 </g>
</svg>
