<?xml version="1.0" encoding="UTF-8" standalone="no"?> <svg xmlns="http://www.w3.org/2000/svg" xmlns:xlink="http://www.w3.org/1999/xlink" viewBox="0 0 64 64"><defs><style>.cls-1{fill:url(#linear-gradient);}</style><linearGradient id="linear-gradient" x1="2" y1="31.92" x2="62" y2="31.92" gradientUnits="userSpaceOnUse"><stop offset="0" stop-color="#17a6d7"/><stop offset="1" stop-color="#9d31fe"/></linearGradient></defs><g id="Layer_73" data-name="Layer 73"><path class="cls-1" d="M32,2A30,30,0,0,0,2,32c1.65,39.8,58.36,39.79,60,0A30,30,0,0,0,32,2Zm0,4c21-.11,33.44,24.28,21.12,41.14A21.23,21.23,0,0,0,39.35,29C47.67,22.21,42.87,8.44,32,8.44S16.33,22.21,24.65,29A21.23,21.23,0,0,0,10.88,47.14C-1.45,30.28,11,5.88,32,6ZM15.24,51.56s-.45-.45-.45-2.71A17.23,17.23,0,0,1,32,31.64c10.19-.27,19.26,10.09,16.79,19.9-.63.25-3.12-.82-4.77-1.52-3.31-1.42-7.42-3.17-12-3.17S23.29,48.6,20,50C18.33,50.72,15.83,51.79,15.24,51.56ZM32,27.62A7.6,7.6,0,0,1,24.41,20c.36-10,14.83-10,15.18,0A7.6,7.6,0,0,1,32,27.62Zm-12.75,27c11-5,14.51-5,25.5,0A26.18,26.18,0,0,1,19.25,54.65Z"/></g></svg>